<?xml version="1.0" encoding="utf-8"?>
<!-- Generator: Adobe Illustrator 27.0.1, SVG Export Plug-In . SVG Version: 6.00 Build 0)  -->
<svg version="1.1" id="Layer_1" xmlns="http://www.w3.org/2000/svg" xmlns:xlink="http://www.w3.org/1999/xlink" x="0px" y="0px"
	 viewBox="0 0 884.7 425.6" style="enable-background:new 0 0 884.7 425.6;" xml:space="preserve">
<style type="text/css">
	.st0{fill:#1DBF73;}
</style>
<g id="B9MxsG.tif">
	<g>
		<path class="st0" d="M0,228.3c0-13,0-25,0-37.5c6.8,0,13.4,0,20.3,0c0.4-5.8,0.6-11.1,1.2-16.3c2.6-21.3,14.6-35.2,34.7-42.1
			c16.5-5.7,33.5-6.3,50.9-3.8c0,13.3,0,26.4,0,39.7c-4.1,0-7.9,0-11.8,0c-1.1,0-2.2,0-3.3,0c-15.5,0.2-20.7,6.2-18.9,22
			c37.7,0,75.4,0,113.7,0c0,38.9,0,77.4,0,116.7c6.8,0,12.9,0,19.4,0c0,12.8,0,24.7,0,37c-30.1,0-60,0-90.2,0c0-12.1,0-24.1,0-36.7
			c6.2,0,12.2,0,18,0c1.5-4.4,1.8-72.3,0.5-79c-20.3,0-40.7,0-61.5,0c0,26,0,51.9,0,78.4c7.2,0,14.3,0,21.9,0c0,12.6,0,24.6,0,36.6
			c-3.9,1.2-78.5,1.8-93.2,0.6c0-12,0-24.1,0-36.8c6.1,0,12.2,0,18.6,0c0-26.5,0-52.4,0-78.9C13.9,228.3,7.3,228.3,0,228.3z"/>
		<path class="st0" d="M532.9,277.2c-32.6,0-64.9,0-97.3,0c2,13.7,11.8,23.9,25.3,27c12.3,2.8,24,0.5,35.4-4.1
			c6.2-2.5,12-5.6,18.5-8.7c6,11.4,12.1,23,18.6,35.1c-2.1,1.6-4,3.2-6.1,4.5c-19.6,12.4-41.1,17.6-64.2,16.9
			c-14.8-0.4-28.7-3.7-41.6-11.1c-21.9-12.6-34.4-31.8-38.4-56.4c-3-18.8-0.4-37,8.9-53.9c13.5-24.8,35.3-36.7,62.9-39.1
			c13.5-1.2,26.8,0.3,39.3,5.8c21.5,9.4,33.3,26.5,38.2,48.8C534.9,253.3,535,264.8,532.9,277.2z M480.8,248.3
			c-0.4-2.5-0.5-4.3-0.9-6.1c-2.7-11.5-12.2-17.8-23.7-15.8c-9.9,1.7-17.2,9.9-19.4,21.9C451.3,248.3,465.7,248.3,480.8,248.3z"/>
		<path class="st0" d="M218,228.1c-5.8,0-11.3,0-17.1,0c0-12.5,0-24.5,0-37c27,0,54.1,0,81.5,0c0,12,0,24.1,0,37
			c-4.3,0-8.4,0-13.1,0c6.9,25.8,17.2,49.7,22.2,76.4c4.8-26.8,15.2-50.5,22-76.2c-4.4,0-8.6,0-13.1,0c0-12.8,0-24.9,0-37.4
			c27.2,0,54.2,0,81.6,0c0,12.2,0,24.2,0,36.9c-5.6,0-11.1,0-17.1,0c-14.3,38.9-28.5,77.5-42.8,116.3c-20.3,0-40.5,0-61.5,0
			C246.6,305.9,232.4,267.4,218,228.1z"/>
		<path class="st0" d="M754.3,225.3c5.9-14.6,14.8-25.9,29.1-32.6c8.1-3.8,16.5-5.3,25.7-4c0,16.8,0,33.4,0,50
			c-4.7,0-9.3-0.2-13.8,0c-20.1,1-33.3,12.2-37.4,31.8c-2.5,11.9-1.4,23.9-1.4,36.6c7,0,13.6,0,20.5,0c0,12.6,0,24.6,0,37
			c-31,0-61.9,0-93.2,0c0-12.1,0-24,0-36.6c6.7,0,13.3,0,20.2,0c0.2-1.8,0.5-3,0.5-4.2c0-22.3,0-44.5,0-66.8c0-6.5-1.7-8.2-8.3-8.3
			c-4-0.1-8.1,0-12.5,0c0-12.6,0-24.6,0-37c1.3-0.1,2.7-0.4,4.1-0.4c14.7,0,29.4,0,44.1,0c0.6,0,1.1,0,1.7,0
			c14.4,0.5,20.4,6.5,20.7,21.1C754.4,216,754.3,220.2,754.3,225.3z"/>
		<path class="st0" d="M618.9,307.2c7.3,0,13.8,0,20.6,0c0,12.4,0,24.4,0,36.8c-30.9,0-61.8,0-93.2,0c0-12,0-24,0-36.7
			c6.8,0,13.5,0,20.7,0c0-2.4,0-4.1,0-5.7c0-21.3,0-42.7,0-64c0-7.9-1.5-9.3-9.5-9.4c-3.7,0-7.4,0-11.3,0c0-12.6,0-24.6,0-37.1
			c1.3-0.1,2.7-0.4,4.1-0.4c14.7,0,29.4,0,44.1,0c0.7,0,1.5,0,2.2,0.1c13.6,0.6,19.6,6.6,20,20c0.1,4.6,0,9.3,0,14.9
			c4.7-11.9,11.3-21.5,21.3-28.4c10-6.8,20.9-10.4,33.6-8.5c0,16.6,0,33.2,0,50.1c-1.4,0-2.8-0.1-4.2,0c-5.9,0.3-12-0.1-17.8,1.1
			c-15.7,3.1-25,13.2-28.8,28.4C617.7,280.8,619,293.6,618.9,307.2z"/>
		<path class="st0" d="M161.2,124.7c13.9-0.1,24.9,10.7,25,24.5c0.1,13.8-10.8,24.8-24.7,24.8c-13.9,0.1-24.9-10.7-25-24.5
			C136.4,135.8,147.3,124.8,161.2,124.7z"/>
		<path class="st0" d="M884.7,148.5c0.1,18.8-14.3,33.5-32.8,33.5c-18.1,0-32.4-14.7-32.4-33.2c0-18.4,14.5-33.4,32.5-33.4
			C870,115.4,884.6,130.2,884.7,148.5z M874.6,148.8c0-10.3-5.5-19-14.4-22.5c-11.9-4.7-25,1.5-29.2,13.9
			c-4.5,13.3,2.4,28,14.9,31.6C860.6,176.1,874.5,164.8,874.6,148.8z"/>
		<path class="st0" d="M861,151.3c2.2,4.3,4.2,8.2,6.4,12.5c-3.9,0-7,0-10.4,0c-0.8-1.8-1.6-3.6-2.5-5.4c-0.8-1.7-1.7-3.4-2.8-5.7
			c-3.1,3.8-0.7,7.7-2.5,11c-2.7,0-5.6,0-8.8,0c0-10.3,0-20.3,0-30.9c5.7,0,11.2-0.3,16.7,0.1c3.9,0.3,7.1,2.4,8.3,6.4
			C866.7,144.1,865.7,148.2,861,151.3z M850.1,146.9c3.6,0.3,5.8-0.5,5.8-4c0-2.6-1.4-3.3-5.8-2.9
			C850.1,142.1,850.1,144.3,850.1,146.9z"/>
	</g>
</g>
</svg>
